<svg xmlns="http://www.w3.org/2000/svg" viewBox="-50 -50 100 100"><g fill="hsl(5, 81%, 56%)"><path d="M0-10v-40l25 22.5V0H10L2.5-2.5"/><path fill="hsl(0, 0%, 0%)" opacity=".2" d="M2.5-2.5l22.5-25V0H10"/></g><g transform="rotate(90)" fill="hsl(217, 89%, 61%)"><path d="M0-10v-40l25 22.5V0H10L2.5-2.5"/><path fill="hsl(0, 0%, 0%)" opacity=".2" d="M2.5-2.5l22.5-25V0H10"/></g><g transform="rotate(180)" fill="hsl(136, 53%, 43%)"><path d="M0-10v-40l25 22.5V0H10L2.5-2.5"/><path fill="hsl(0, 0%, 0%)" opacity=".2" d="M2.5-2.5l22.5-25V0H10"/></g><g transform="rotate(270)" fill="hsl(45, 97%, 50%)"><path d="M0-10v-40l25 22.5V0H10L2.5-2.5"/><path fill="hsl(0, 0%, 0%)" opacity=".2" d="M2.5-2.5l22.5-25V0H10"/></g></svg>