<svg xmlns="http://www.w3.org/2000/svg" viewBox="0 0 135 100" style="width: 400px; height: auto;">
  <g fill="none" stroke="currentColor" stroke-width="0.05">
    <circle r="10" cx="95" cy="65" />
    <circle r="30" cx="95" cy="65" />
    <circle r="10" cx="95" cy="35" />
    <circle r="30" cx="95" cy="35" />
    <circle r="55" cx="30" cy="50" />
    <circle r="45" cx="30" cy="50" />
    <circle r="25" cx="30" cy="50" />
  
    <path d="M 0 5 135 5" />
    <path d="M 0 95 135 95" />
    <path d="M 0 25 135 25" />
    <path d="M 0 75 135 75" />
    <path d="M 0 45 135 45" />
    <path d="M 0 55 135 55" />
    <path d="M 0 50 135 50" />

    <path d="M 20 0 20 100" />
    <path d="M 30 0 30 100" />
    <path d="M 95 0 95 100" />
    <path d="M 85 0 85 100" />
    <path d="M 125 0 125 100" />
  </g>
</svg>